<svg width="21" height="21" viewBox="0 0 21 21" fill="none" xmlns="http://www.w3.org/2000/svg">
<circle cx="10.5" cy="10.5" r="10" stroke="black"/>
<path d="M11.1923 6.69231C11.1923 6.30937 10.8829 6 10.5 6C10.1171 6 9.80769 6.30937 9.80769 6.69231V9.80769H6.69231C6.30937 9.80769 6 10.1171 6 10.5C6 10.8829 6.30937 11.1923 6.69231 11.1923H9.80769V14.3077C9.80769 14.6906 10.1171 15 10.5 15C10.8829 15 11.1923 14.6906 11.1923 14.3077V11.1923H14.3077C14.6906 11.1923 15 10.8829 15 10.5C15 10.1171 14.6906 9.80769 14.3077 9.80769H11.1923V6.69231Z" fill="black"/>
</svg>
