<svg width="12" height="12" viewBox="0 0 12 12" fill="none" xmlns="http://www.w3.org/2000/svg">
<path d="M0.9375 1.125C0.625781 1.125 0.375 1.37578 0.375 1.6875V2.8125C0.375 3.12422 0.625781 3.375 0.9375 3.375H2.0625C2.37422 3.375 2.625 3.12422 2.625 2.8125V1.6875C2.625 1.37578 2.37422 1.125 2.0625 1.125H0.9375ZM4.5 1.5C4.08516 1.5 3.75 1.83516 3.75 2.25C3.75 2.66484 4.08516 3 4.5 3H11.25C11.6648 3 12 2.66484 12 2.25C12 1.83516 11.6648 1.5 11.25 1.5H4.5ZM4.5 5.25C4.08516 5.25 3.75 5.58516 3.75 6C3.75 6.41484 4.08516 6.75 4.5 6.75H11.25C11.6648 6.75 12 6.41484 12 6C12 5.58516 11.6648 5.25 11.25 5.25H4.5ZM4.5 9C4.08516 9 3.75 9.33516 3.75 9.75C3.75 10.1648 4.08516 10.5 4.5 10.5H11.25C11.6648 10.5 12 10.1648 12 9.75C12 9.33516 11.6648 9 11.25 9H4.5ZM0.375 5.4375V6.5625C0.375 6.87422 0.625781 7.125 0.9375 7.125H2.0625C2.37422 7.125 2.625 6.87422 2.625 6.5625V5.4375C2.625 5.12578 2.37422 4.875 2.0625 4.875H0.9375C0.625781 4.875 0.375 5.12578 0.375 5.4375ZM0.9375 8.625C0.625781 8.625 0.375 8.87578 0.375 9.1875V10.3125C0.375 10.6242 0.625781 10.875 0.9375 10.875H2.0625C2.37422 10.875 2.625 10.6242 2.625 10.3125V9.1875C2.625 8.87578 2.37422 8.625 2.0625 8.625H0.9375Z" fill="black"/>
</svg>
