<svg width="153" height="175" viewBox="0 0 153 175" fill="none" xmlns="http://www.w3.org/2000/svg">
<path d="M0 32.8125C0 26.7627 4.88371 21.875 10.9286 21.875H142.071C148.116 21.875 153 26.7627 153 32.8125C153 38.8623 148.116 43.75 142.071 43.75H10.9286C4.88371 43.75 0 38.8623 0 32.8125ZM0 87.5C0 81.4502 4.88371 76.5625 10.9286 76.5625H142.071C148.116 76.5625 153 81.4502 153 87.5C153 93.5498 148.116 98.4375 142.071 98.4375H10.9286C4.88371 98.4375 0 93.5498 0 87.5ZM153 142.188C153 148.237 148.116 153.125 142.071 153.125H10.9286C4.88371 153.125 0 148.237 0 142.188C0 136.138 4.88371 131.25 10.9286 131.25H142.071C148.116 131.25 153 136.138 153 142.188Z" fill="black"/>
</svg>
