<svg width="21" height="21" viewBox="0 0 21 21" fill="none" xmlns="http://www.w3.org/2000/svg">
<g clip-path="url(#clip0_146_2)">
<path d="M10.5 21C13.2848 21 15.9555 19.8938 17.9246 17.9246C19.8938 15.9555 21 13.2848 21 10.5C21 7.71523 19.8938 5.04451 17.9246 3.07538C15.9555 1.10625 13.2848 0 10.5 0C7.71523 0 5.04451 1.10625 3.07538 3.07538C1.10625 5.04451 0 7.71523 0 10.5C0 13.2848 1.10625 15.9555 3.07538 17.9246C5.04451 19.8938 7.71523 21 10.5 21ZM7.54688 9.51562H13.4531C13.9986 9.51562 14.4375 9.95449 14.4375 10.5C14.4375 11.0455 13.9986 11.4844 13.4531 11.4844H7.54688C7.00137 11.4844 6.5625 11.0455 6.5625 10.5C6.5625 9.95449 7.00137 9.51562 7.54688 9.51562Z" fill="#BCBCBC"/>
</g>
<defs>
<clipPath id="clip0_146_2">
<rect width="21" height="21" fill="white"/>
</clipPath>
</defs>
</svg>
