<svg width="12" height="14" viewBox="0 0 12 14" fill="none" xmlns="http://www.w3.org/2000/svg">
<path d="M6.85716 2.14285C6.85716 1.66874 6.47412 1.28571 6.00002 1.28571C5.52591 1.28571 5.14287 1.66874 5.14287 2.14285V5.99999H1.28573C0.811625 5.99999 0.428589 6.38303 0.428589 6.85713C0.428589 7.33124 0.811625 7.71428 1.28573 7.71428H5.14287V11.5714C5.14287 12.0455 5.52591 12.4286 6.00002 12.4286C6.47412 12.4286 6.85716 12.0455 6.85716 11.5714V7.71428H10.7143C11.1884 7.71428 11.5714 7.33124 11.5714 6.85713C11.5714 6.38303 11.1884 5.99999 10.7143 5.99999H6.85716V2.14285Z" fill="black"/>
</svg>
