<svg width="12" height="13" viewBox="0 0 12 13" fill="none" xmlns="http://www.w3.org/2000/svg">
<g clip-path="url(#clip0_4_22)">
<path d="M9.75 5.375C9.75 6.45078 9.40078 7.44453 8.8125 8.25078L11.7797 11.2203C12.0727 11.5133 12.0727 11.9891 11.7797 12.282C11.4867 12.575 11.0109 12.575 10.718 12.282L7.75078 9.3125C6.94453 9.90312 5.95078 10.25 4.875 10.25C2.18203 10.25 0 8.06797 0 5.375C0 2.68203 2.18203 0.5 4.875 0.5C7.56797 0.5 9.75 2.68203 9.75 5.375ZM4.875 8.75C5.31821 8.75 5.75708 8.6627 6.16656 8.49309C6.57603 8.32348 6.94809 8.07488 7.26149 7.76149C7.57488 7.44809 7.82348 7.07603 7.99309 6.66656C8.1627 6.25708 8.25 5.81821 8.25 5.375C8.25 4.93179 8.1627 4.49292 7.99309 4.08344C7.82348 3.67397 7.57488 3.30191 7.26149 2.98851C6.94809 2.67512 6.57603 2.42652 6.16656 2.25691C5.75708 2.0873 5.31821 2 4.875 2C4.43179 2 3.99292 2.0873 3.58344 2.25691C3.17397 2.42652 2.80191 2.67512 2.48851 2.98851C2.17512 3.30191 1.92652 3.67397 1.75691 4.08344C1.5873 4.49292 1.5 4.93179 1.5 5.375C1.5 5.81821 1.5873 6.25708 1.75691 6.66656C1.92652 7.07603 2.17512 7.44809 2.48851 7.76149C2.80191 8.07488 3.17397 8.32348 3.58344 8.49309C3.99292 8.6627 4.43179 8.75 4.875 8.75Z" fill="black" fill-opacity="0.8"/>
</g>
<defs>
<clipPath id="clip0_4_22">
<rect width="12" height="12" fill="white" transform="translate(0 0.5)"/>
</clipPath>
</defs>
</svg>
