<svg width="12" height="12" viewBox="0 0 12 12" fill="none" xmlns="http://www.w3.org/2000/svg">
<g clip-path="url(#clip0_4_110)">
<path d="M11.6226 3.90469C11.6976 4.10859 11.6344 4.33594 11.4726 4.48125L10.4578 5.40469C10.4836 5.59922 10.4976 5.79844 10.4976 6C10.4976 6.20156 10.4836 6.40078 10.4578 6.59531L11.4726 7.51875C11.6344 7.66406 11.6976 7.89141 11.6226 8.09531C11.5195 8.37422 11.3953 8.64141 11.2523 8.89922L11.1422 9.08906C10.9875 9.34687 10.814 9.59062 10.6242 9.82031C10.4859 9.98906 10.2562 10.0453 10.05 9.97969L8.74451 9.56484C8.43045 9.80625 8.08358 10.0078 7.71326 10.1602L7.4203 11.4984C7.37342 11.7117 7.20936 11.8805 6.99373 11.9156C6.67029 11.9695 6.33748 11.9977 5.99764 11.9977C5.65779 11.9977 5.32498 11.9695 5.00154 11.9156C4.78592 11.8805 4.62186 11.7117 4.57498 11.4984L4.28201 10.1602C3.9117 10.0078 3.56483 9.80625 3.25076 9.56484L1.94764 9.98203C1.74139 10.0477 1.5117 9.98906 1.37342 9.82266C1.18358 9.59297 1.01014 9.34922 0.85545 9.09141L0.745294 8.90156C0.602325 8.64375 0.478107 8.37656 0.374982 8.09766C0.299982 7.89375 0.363263 7.66641 0.524982 7.52109L1.53983 6.59766C1.51404 6.40078 1.49998 6.20156 1.49998 6C1.49998 5.79844 1.51404 5.59922 1.53983 5.40469L0.524982 4.48125C0.363263 4.33594 0.299982 4.10859 0.374982 3.90469C0.478107 3.62578 0.602325 3.35859 0.745294 3.10078L0.85545 2.91094C1.01014 2.65312 1.18358 2.40937 1.37342 2.17969C1.5117 2.01094 1.74139 1.95469 1.94764 2.02031L3.25311 2.43516C3.56717 2.19375 3.91404 1.99219 4.28436 1.83984L4.57733 0.501562C4.6242 0.288281 4.78826 0.119531 5.00389 0.084375C5.32733 0.028125 5.66014 0 5.99998 0C6.33983 0 6.67264 0.028125 6.99608 0.0820312C7.2117 0.117188 7.37576 0.285937 7.42264 0.499219L7.71561 1.8375C8.08592 1.98984 8.4328 2.19141 8.74686 2.43281L10.0523 2.01797C10.2586 1.95234 10.4883 2.01094 10.6265 2.17734C10.8164 2.40703 10.9898 2.65078 11.1445 2.90859L11.2547 3.09844C11.3976 3.35625 11.5219 3.62344 11.625 3.90234L11.6226 3.90469ZM5.99998 7.875C6.49726 7.875 6.97418 7.67746 7.32581 7.32583C7.67744 6.97419 7.87498 6.49728 7.87498 6C7.87498 5.50272 7.67744 5.02581 7.32581 4.67417C6.97418 4.32254 6.49726 4.125 5.99998 4.125C5.5027 4.125 5.02579 4.32254 4.67416 4.67417C4.32253 5.02581 4.12498 5.50272 4.12498 6C4.12498 6.49728 4.32253 6.97419 4.67416 7.32583C5.02579 7.67746 5.5027 7.875 5.99998 7.875Z" fill="black"/>
</g>
<defs>
<clipPath id="clip0_4_110">
<rect width="12" height="12" fill="white"/>
</clipPath>
</defs>
</svg>
