<svg width="12" height="12" viewBox="0 0 12 12" fill="none" xmlns="http://www.w3.org/2000/svg">
<g clip-path="url(#clip0_4_52)">
<path d="M1.5 1.5C1.5 1.08516 1.16484 0.75 0.75 0.75C0.335156 0.75 0 1.08516 0 1.5V9.375C0 10.4109 0.839062 11.25 1.875 11.25H11.25C11.6648 11.25 12 10.9148 12 10.5C12 10.0852 11.6648 9.75 11.25 9.75H1.875C1.66875 9.75 1.5 9.58125 1.5 9.375V1.5ZM11.0297 3.52969C11.3227 3.23672 11.3227 2.76094 11.0297 2.46797C10.7367 2.175 10.2609 2.175 9.96797 2.46797L7.5 4.93828L6.15469 3.59297C5.86172 3.3 5.38594 3.3 5.09297 3.59297L2.46797 6.21797C2.175 6.51094 2.175 6.98672 2.46797 7.27969C2.76094 7.57266 3.23672 7.57266 3.52969 7.27969L5.625 5.18672L6.97031 6.53203C7.26328 6.825 7.73906 6.825 8.03203 6.53203L11.032 3.53203L11.0297 3.52969Z" fill="black"/>
</g>
<defs>
<clipPath id="clip0_4_52">
<rect width="12" height="12" fill="white"/>
</clipPath>
</defs>
</svg>
