<svg width="12" height="14" viewBox="0 0 12 14" fill="none" xmlns="http://www.w3.org/2000/svg">
<path d="M0.214355 6.85715C0.214355 6.45932 0.372391 6.07779 0.653695 5.79649C0.935 5.51518 1.31653 5.35715 1.71436 5.35715C2.11218 5.35715 2.49371 5.51518 2.77502 5.79649C3.05632 6.07779 3.21436 6.45932 3.21436 6.85715C3.21436 7.25497 3.05632 7.6365 2.77502 7.91781C2.49371 8.19911 2.11218 8.35715 1.71436 8.35715C1.31653 8.35715 0.935 8.19911 0.653695 7.91781C0.372391 7.6365 0.214355 7.25497 0.214355 6.85715ZM4.50007 6.85715C4.50007 6.45932 4.65811 6.07779 4.93941 5.79649C5.22071 5.51518 5.60224 5.35715 6.00007 5.35715C6.39789 5.35715 6.77943 5.51518 7.06073 5.79649C7.34203 6.07779 7.50007 6.45932 7.50007 6.85715C7.50007 7.25497 7.34203 7.6365 7.06073 7.91781C6.77943 8.19911 6.39789 8.35715 6.00007 8.35715C5.60224 8.35715 5.22071 8.19911 4.93941 7.91781C4.65811 7.6365 4.50007 7.25497 4.50007 6.85715ZM10.2858 5.35715C10.6836 5.35715 11.0651 5.51518 11.3464 5.79649C11.6277 6.07779 11.7858 6.45932 11.7858 6.85715C11.7858 7.25497 11.6277 7.6365 11.3464 7.91781C11.0651 8.19911 10.6836 8.35715 10.2858 8.35715C9.88796 8.35715 9.50643 8.19911 9.22512 7.91781C8.94382 7.6365 8.78578 7.25497 8.78578 6.85715C8.78578 6.45932 8.94382 6.07779 9.22512 5.79649C9.50643 5.51518 9.88796 5.35715 10.2858 5.35715Z" fill="black" fill-opacity="0.5"/>
</svg>
