<svg width="12" height="14" viewBox="0 0 12 14" fill="none" xmlns="http://www.w3.org/2000/svg">
<g clip-path="url(#clip0_4_108)">
<path d="M6 6.85714C6.90931 6.85714 7.78138 6.49592 8.42437 5.85294C9.06735 5.20996 9.42857 4.33789 9.42857 3.42857C9.42857 2.51926 9.06735 1.64719 8.42437 1.00421C7.78138 0.361224 6.90931 0 6 0C5.09069 0 4.21862 0.361224 3.57563 1.00421C2.93265 1.64719 2.57143 2.51926 2.57143 3.42857C2.57143 4.33789 2.93265 5.20996 3.57563 5.85294C4.21862 6.49592 5.09069 6.85714 6 6.85714ZM4.77589 8.14286C2.1375 8.14286 0 10.2804 0 12.9187C0 13.358 0.35625 13.7143 0.795536 13.7143H11.2045C11.6438 13.7143 12 13.358 12 12.9187C12 10.2804 9.8625 8.14286 7.22411 8.14286H4.77589Z" fill="black"/>
</g>
<defs>
<clipPath id="clip0_4_108">
<rect width="12" height="13.7143" fill="white"/>
</clipPath>
</defs>
</svg>
